<svg xmlns="http://www.w3.org/2000/svg" xmlns:xlink="http://www.w3.org/1999/xlink" viewBox="0 0 189 48"><defs><style>.cls-1{isolation:isolate;}.cls-12,.cls-2{fill:#fff;}.cls-3{fill:red;}.cls-4{fill:url(#linear-gradient);}.cls-11,.cls-5,.cls-8{opacity:0.8;mix-blend-mode:multiply;}.cls-5{fill:url(#linear-gradient-2);}.cls-6{fill:#73130e;}.cls-7{fill:url(#radial-gradient);}.cls-8{fill:url(#linear-gradient-3);}.cls-9{fill:#959595;}.cls-10{fill:url(#linear-gradient-4);}.cls-11{fill:url(#linear-gradient-5);}.cls-12{opacity:0.25;mix-blend-mode:screen;}</style><linearGradient id="linear-gradient" x1="167.96" y1="0.08" x2="182.17" y2="18.33" gradientTransform="translate(8.22 -45.11) rotate(15.18)" gradientUnits="userSpaceOnUse"><stop offset="0" stop-color="#fc4139"/><stop offset="0.49" stop-color="#eb2b22"/><stop offset="0.61" stop-color="#e6251c"/><stop offset="1" stop-color="#ca0f0b"/></linearGradient><linearGradient id="linear-gradient-2" x1="175.89" y1="3.4" x2="186.74" y2="13.95" gradientTransform="translate(8.22 -45.11) rotate(15.18)" gradientUnits="userSpaceOnUse"><stop offset="0" stop-color="#e6251c"/><stop offset="1" stop-color="#ca0f0b"/></linearGradient><radialGradient id="radial-gradient" cx="185.78" cy="11.23" r="4.38" gradientTransform="matrix(1, 0.19, -0.27, 0.71, 3.54, -27.98)" gradientUnits="userSpaceOnUse"><stop offset="0" stop-color="#fff"/><stop offset="0.63" stop-color="#e7eae6"/><stop offset="1" stop-color="#d4d2d2"/></radialGradient><linearGradient id="linear-gradient-3" x1="187.61" y1="11.65" x2="188.87" y2="14.97" gradientTransform="translate(8.22 -45.11) rotate(15.18)" gradientUnits="userSpaceOnUse"><stop offset="0" stop-color="#e1e5e0"/><stop offset="1" stop-color="#cfcdcd"/></linearGradient><linearGradient id="linear-gradient-4" x1="166.41" y1="8.3" x2="172.43" y2="20.1" gradientTransform="translate(8.22 -45.11) rotate(15.18)" xlink:href="#radial-gradient"/><linearGradient id="linear-gradient-5" x1="168.67" y1="10.68" x2="171.62" y2="19.41" xlink:href="#linear-gradient-3"/></defs><g class="cls-1"><g id="Layer_1" data-name="Layer 1"><polygon class="cls-2" points="101.55 10.63 96.67 0.03 79.95 0.03 90.22 21.23 101.55 10.63"/><path class="cls-2" d="M141.19,0H111.33L70.48,48H86.73l10.7-12.76L103.31,48h28.05l3.76-21.36,3.41,11.76,10.2-12.24ZM118.3,44.15,108.35,23,125.54,3.09Z"/><polygon class="cls-2" points="160.57 9.32 139.41 41.44 153.09 41.44 163.49 25.24 159.47 47.97 173.28 47.97 179.26 14.04 160.57 9.32"/><path class="cls-3" d="M21.26,1.79A36.87,36.87,0,0,0,21,8.51c.32,3.17,2.29,4.79,4.88,5.8a5.25,5.25,0,0,0,2.94.53,3.4,3.4,0,0,0,1.1-.62A7.93,7.93,0,0,1,33.12,13a13.83,13.83,0,0,1,5.23.66,19.36,19.36,0,0,1,4.38,1.62,4.12,4.12,0,0,1,1.45,1.54c.6,1,.84,2.72,2.2,3a24.39,24.39,0,0,0,.13-4.44,28,28,0,0,1,.57-4.08q.6-2.81,1.45-5.54c.09-.28.34-1.69.88-1.49.24.08.19.66.18,1,0,1.18-.13,2-.22,3.21A32.41,32.41,0,0,0,49.59,17a13.7,13.7,0,0,1,.48,4.13,10,10,0,0,1-.3,1.27,7.9,7.9,0,0,1-.09.92,6.52,6.52,0,0,1-.79,1.41c-.14.23-.27.46-.4.7s-.41.41-.39.7c0,.45.9,1.32,1.36,1.45,2,.56,4.14.85,5.31,2a4.4,4.4,0,0,1,1.37,2.81,5.71,5.71,0,0,1-.66,2.86c-.28.63-.55,2.2-1,2.5s-.91.09-1.32.31a10.73,10.73,0,0,0-.43,1.69c-.33.47-.83.77-1.19,1.22.12,1-.54,1.31-1.4,1.37-2.57,2.09-7.67.71-9.84-.71C39.22,42.4,38,43.05,38.15,45a15.31,15.31,0,0,0,2.76,1.49c1.47.49,3.27.23,4.22,1.1a1.58,1.58,0,0,1,.22.23h7.38L73.57,23.58,62.16.05H21.4C21.35.65,21.31,1.22,21.26,1.79Z"/><path class="cls-3" d="M2.11,47.61A15.48,15.48,0,0,1,7.2,44.45a18.21,18.21,0,0,0,4.09-2.11,3.34,3.34,0,0,1,1.49-.93,9.16,9.16,0,0,1,3.16.53A5.72,5.72,0,0,0,21.35,40a7.12,7.12,0,0,0,1.71-2.11,10.92,10.92,0,0,0,.26-3.82c0-2.74,1-4.67,1.06-7.2A33.37,33.37,0,0,1,24.25,23a13.52,13.52,0,0,1-4.05-2.59c-1.06-1.18-2.29-3.38-1.93-5.31a9.3,9.3,0,0,1-1.54-5,18.54,18.54,0,0,1,1.1-5.36c.46-1.56.91-3.14,1.39-4.73H10.06L-.27,47.84H1.91C2,47.77,2,47.68,2.11,47.61Z"/><path class="cls-4" d="M159.64,8.38a9.24,9.24,0,0,1,4.58-4.24c3-1.3,3.83-1.19,6.9-2.63s4.7-1.86,8-1,9.25,3.9,9,7c-.07,1.47-1.12,2.77-1.26,4.66a7.16,7.16,0,0,0,.38,3.1l-2.4.52a4.25,4.25,0,0,1-1.76-3.05c-.17-2-.07-2.88-.83-3.84A2.53,2.53,0,0,1,180.49,10a4.08,4.08,0,0,1-.94,3.84C177.15,12.52,159.64,8.38,159.64,8.38Z"/><path class="cls-5" d="M181.89,5.81c.24.63-.29,1.22-1,1.43a5,5,0,0,1-2.59-.18c.05,1.85-.26,4.32-2.15,5.6a21.77,21.77,0,0,1,3.39,1.2,4.08,4.08,0,0,0,.94-3.84,2.53,2.53,0,0,0,1.81-1.18c.76,1,.66,1.82.83,3.84a4.25,4.25,0,0,0,1.76,3.05l2.4-.52a7.16,7.16,0,0,1-.38-3.1c0-.23.05-.45.09-.67-1.33-.61-1-2.4-1.73-3.32S183.23,7.88,181.89,5.81Z"/><path class="cls-6" d="M184.87,15.79l0,0a4.3,4.3,0,0,1-1.78-3.08c0-.38-.06-.71-.08-1A4.62,4.62,0,0,0,182.3,9a2.58,2.58,0,0,1-1.72,1.12,4.21,4.21,0,0,1-1,3.82l-.05,0-.06,0c-2.37-1.32-19.72-5.43-19.89-5.47l-.08,0,0-.05a9.41,9.41,0,0,1,4.61-4.28c1.39-.6,2.31-.9,3.21-1.2a27.87,27.87,0,0,0,3.69-1.43c2.8-1.32,4.42-1.79,7.2-1.23l.89.21c3.37.86,9.29,3.94,9.07,7a6.77,6.77,0,0,1-.56,2.09,8.38,8.38,0,0,0-.69,2.56,7.29,7.29,0,0,0,.37,3.08l0,.06Zm-2.58-7.07.07.09a4.46,4.46,0,0,1,.78,2.86c0,.3,0,.64.07,1a4.2,4.2,0,0,0,1.7,3l2.29-.5a7.31,7.31,0,0,1-.36-3.06,8.79,8.79,0,0,1,.69-2.59,6.73,6.73,0,0,0,.56-2.07c.22-3-5.63-6.06-9-6.91l-.88-.2c-2.72-.55-4.32-.09-7.08,1.21A28,28,0,0,1,167.45,3a32,32,0,0,0-3.2,1.19,9.28,9.28,0,0,0-4.51,4.16c1.39.33,17.23,4.1,19.79,5.43a4,4,0,0,0,.88-3.75l0-.06h.09a2.46,2.46,0,0,0,1.75-1.15Z"/><path class="cls-6" d="M179.84,10.72a7.89,7.89,0,0,0-1-2.31A6.84,6.84,0,0,1,180,10.72Z"/><path class="cls-6" d="M181.45,9.43l-.12-.06a2,2,0,0,0,.43-1.81A1.85,1.85,0,0,1,181.45,9.43Z"/><path class="cls-7" d="M188.83,16.94a2.8,2.8,0,0,1-3.16,1.29C184.3,18,183.49,17,183.86,16A2.82,2.82,0,0,1,187,14.7C188.4,15,189.21,16,188.83,16.94Z"/><path class="cls-8" d="M188.65,15.65a2.43,2.43,0,0,1-2.16,1.48,4.5,4.5,0,0,1-2.72-.68c0,.81.75,1.56,1.9,1.78a2.8,2.8,0,0,0,3.16-1.29A1.33,1.33,0,0,0,188.65,15.65Z"/><path class="cls-9" d="M185.65,18.28C184.24,18,183.41,17,183.79,16s1.84-1.59,3.25-1.32S189.29,16,188.91,17A2.91,2.91,0,0,1,185.65,18.28ZM187,14.76A2.73,2.73,0,0,0,183.93,16c-.36.95.43,1.92,1.76,2.18a2.75,2.75,0,0,0,3.07-1.25C189.12,16,188.33,15,187,14.76Z"/><path class="cls-10" d="M156.77,11.6s-2.25,1.89-.46,3.09c.42.35,5.1-.29,11.24.93a38,38,0,0,1,10.72,3.53c1,.12,1.67-1.29,1.51-2.42,1.25-.78,1.58-2.19.5-3a38.89,38.89,0,0,0-10.67-4.1c-3.65-.88-8.2-1.74-11.36-1C157,8.79,155.86,10.77,156.77,11.6Z"/><path class="cls-11" d="M180.28,13.72a17.08,17.08,0,0,0-2.9-1.5c1.67,2.14-.08,2.81-1,2.38,1.55,1.22,1,2.59-.36,2.34-6.88-1.81-11.36-3.32-19.92-2.4l.19.15c.42.35,5.1-.29,11.24.93a38,38,0,0,1,10.72,3.53c1,.12,1.67-1.29,1.51-2.42C181,16,181.36,14.54,180.28,13.72Z"/><path class="cls-9" d="M178.23,19.19a3.46,3.46,0,0,1-.77-.33,35.77,35.77,0,0,0-9.94-3.19,46,46,0,0,0-9.3-.8,12.09,12.09,0,0,1-1.72-.06h0a.55.55,0,0,1-.24-.09c-1.69-1.13.13-2.87.42-3.12a1.53,1.53,0,0,1,0-1.84,2.28,2.28,0,0,1,1.56-1.2,20.18,20.18,0,0,1,7.83.25c1.08.19,2.25.44,3.56.76a38.14,38.14,0,0,1,10.71,4.12c1.06.8.83,2.23-.48,3.07A2.44,2.44,0,0,1,179,19a1.13,1.13,0,0,1-.74.16Zm-11.35-3.75.69.13a36.12,36.12,0,0,1,10,3.2,3.42,3.42,0,0,0,.71.32h0a.92.92,0,0,0,.6-.13,2.38,2.38,0,0,0,.82-2.22v0h0c1.28-.8,1.51-2.18.5-2.94a38.84,38.84,0,0,0-10.64-4.09c-1.32-.31-2.48-.56-3.55-.76a20.17,20.17,0,0,0-7.75-.25,2.22,2.22,0,0,0-1.45,1.13,1.42,1.42,0,0,0,0,1.78l0,0,0,0s-2.18,1.87-.46,3a.32.32,0,0,0,.17.06h0a13.63,13.63,0,0,0,1.68,0A47.63,47.63,0,0,1,166.88,15.44Z"/><path class="cls-9" d="M156.54,12l-.14-.06a4.74,4.74,0,0,1,1.79-1A5.6,5.6,0,0,0,156.54,12Z"/><path class="cls-9" d="M179.73,17.25a2,2,0,0,0-.84-1.63,2,2,0,0,1,1,1.64Z"/><path class="cls-12" d="M161.37,7.58a1.43,1.43,0,0,1,.1-.16,4.88,4.88,0,0,1,.31-.44,7.7,7.7,0,0,1,1.47-1.45,6.87,6.87,0,0,1,1.31-.78,6,6,0,0,1,.85-.32l.85-.25L168,3.66A17.8,17.8,0,0,0,169.68,3c.27-.11.53-.23.79-.36l.38-.2.37-.21A10.39,10.39,0,0,1,173,1.49a9.42,9.42,0,0,1,1.83-.41c.31,0,.6-.05.89-.06s.56,0,.82,0a9.29,9.29,0,0,1,1.38.22,8.71,8.71,0,0,1,1,.3l.35.14.25.11.2.09-.23,0-.66-.11c-.28-.05-.62-.09-1-.12a10.69,10.69,0,0,0-1.29,0,8.78,8.78,0,0,0-1.48.18,8,8,0,0,0-1.51.47A9.53,9.53,0,0,0,172,3l-.39.24c-.13.08-.28.15-.42.22s-.57.29-.88.42l-.92.35-.93.29c-.63.18-1.25.32-1.84.46l-.88.19a5.74,5.74,0,0,0-.74.2,9,9,0,0,0-1.28.57A14,14,0,0,0,162,7.09C161.59,7.39,161.37,7.58,161.37,7.58Z"/></g></g></svg>