<svg width="131" height="103" viewBox="0 0 131 103" fill="none" xmlns="http://www.w3.org/2000/svg">
<path d="M36.01 101H65.5262" stroke="#454545" stroke-width="2.5" stroke-miterlimit="10"/>
<path d="M49.2159 86.113V101" stroke="#454545" stroke-width="2.5" stroke-miterlimit="10"/>
<path d="M59.5167 86.113V101" stroke="#454545" stroke-width="2.5" stroke-miterlimit="10"/>
<path d="M106.122 30.0917V7C106.122 4.23858 103.883 2 101.122 2H7C4.23857 2 2 4.23858 2 7V13.6317V72.7059V81.2427C2 84.0042 4.23858 86.2427 7 86.2427H65.0971" stroke="#454545" stroke-width="2.5" stroke-miterlimit="10"/>
<path d="M13.0302 62.6063V12.7462H94.6508V21.8248" stroke="#454545" stroke-width="2.5" stroke-miterlimit="10"/>
<path d="M106.733 44.0898H72.3944V79.9602" stroke="#454545" stroke-width="2.5" stroke-miterlimit="10"/>
<path d="M114.459 50.6516V40.0274C114.46 39.6422 114.385 39.2605 114.239 38.9043C114.093 38.5481 113.878 38.2244 113.606 37.9516C113.335 37.6788 113.013 37.4624 112.658 37.3147C112.303 37.167 111.923 37.091 111.539 37.091H67.5961C67.2113 37.0899 66.8299 37.1651 66.4741 37.3122C66.1183 37.4594 65.7951 37.6756 65.5229 37.9485C65.2508 38.2214 65.0351 38.5456 64.8883 38.9023C64.7416 39.2591 64.6666 39.6414 64.6677 40.0274V98.0208C64.6666 98.4067 64.7416 98.7891 64.8883 99.1458C65.0351 99.5026 65.2508 99.8268 65.5229 100.1C65.7951 100.373 66.1183 100.589 66.4741 100.736C66.8299 100.883 67.2113 100.958 67.5961 100.957H94.714" stroke="#454545" stroke-width="2.5" stroke-miterlimit="10"/>
<path d="M89.9922 94.8334C92.1258 94.8334 93.8553 93.0707 93.8553 90.8964C93.8553 88.722 92.1258 86.9594 89.9922 86.9594C87.8587 86.9594 86.1292 88.722 86.1292 90.8964C86.1292 93.0707 87.8587 94.8334 89.9922 94.8334Z" stroke="#454545" stroke-width="2.5" stroke-miterlimit="10"/>
<path d="M116.175 63.3372H123.901V70.3365" stroke="#454545" stroke-width="2.5" stroke-miterlimit="10"/>
<path d="M119.61 63.3372H106.733V86.9592" stroke="#454545" stroke-width="2.5" stroke-miterlimit="10"/>
<path d="M101.582 92.0816V98.9798C101.581 99.2397 101.632 99.4972 101.732 99.7374C101.832 99.9777 101.978 100.196 102.163 100.38C102.348 100.563 102.568 100.709 102.81 100.808C103.052 100.907 103.311 100.958 103.573 100.957H127.068C127.329 100.957 127.587 100.906 127.828 100.807C128.069 100.708 128.288 100.563 128.472 100.38C128.656 100.197 128.802 99.9797 128.902 99.7404C129.002 99.5011 129.053 99.2447 129.053 98.9858V60.0608C129.053 59.8018 129.002 59.5452 128.903 59.3057C128.803 59.0663 128.657 58.8487 128.472 58.6655C128.288 58.4822 128.069 58.3369 127.828 58.2378C127.587 58.1387 127.329 58.0878 127.068 58.088H103.573C103.046 58.088 102.542 58.2957 102.169 58.6654C101.797 59.0351 101.588 59.5365 101.588 60.0593V92.0816H101.582Z" stroke="#454545" stroke-width="2.5" stroke-miterlimit="10"/>
<path d="M115.317 96.5831C116.739 96.5831 117.893 95.408 117.893 93.9585C117.893 92.509 116.739 91.3339 115.317 91.3339C113.895 91.3339 112.742 92.509 112.742 93.9585C112.742 95.408 113.895 96.5831 115.317 96.5831Z" stroke="#454545" stroke-width="2.5" stroke-miterlimit="10"/>
</svg>
