<svg width="8" height="8" viewBox="0 0 8 8" fill="none" xmlns="http://www.w3.org/2000/svg">
<path fill-rule="evenodd" clip-rule="evenodd" d="M0 4.00001C0 3.8674 0.0526785 3.74022 0.146447 3.64645C0.240215 3.55268 0.367392 3.50001 0.5 3.50001H6.293L4.146 1.35401C4.05211 1.26012 3.99937 1.13278 3.99937 1.00001C3.99937 0.86723 4.05211 0.739893 4.146 0.646006C4.23989 0.552119 4.36722 0.499374 4.5 0.499374C4.63278 0.499374 4.76011 0.552119 4.854 0.646006L7.854 3.64601C7.90056 3.69245 7.93751 3.74763 7.96271 3.80837C7.98792 3.86912 8.00089 3.93424 8.00089 4.00001C8.00089 4.06577 7.98792 4.13089 7.96271 4.19164C7.93751 4.25238 7.90056 4.30756 7.854 4.35401L4.854 7.35401C4.76011 7.44789 4.63278 7.50064 4.5 7.50064C4.36722 7.50064 4.23989 7.44789 4.146 7.35401C4.05211 7.26012 3.99937 7.13278 3.99937 7.00001C3.99937 6.86723 4.05211 6.73989 4.146 6.64601L6.293 4.50001H0.5C0.367392 4.50001 0.240215 4.44733 0.146447 4.35356C0.0526785 4.25979 0 4.13261 0 4.00001Z" fill="#333333"/>
</svg>
