<svg width="144" height="42" viewBox="0 0 144 42" fill="none" xmlns="http://www.w3.org/2000/svg">
<rect width="144" height="42" fill="black"/>
<path d="M30.2398 20.8807C30.2614 19.0257 31.2622 17.3177 32.8894 16.3447C31.8598 14.9167 30.1966 14.0417 28.4038 13.9857C26.5174 13.7967 24.6886 15.0847 23.731 15.0847C22.7518 15.0847 21.2686 14.0067 19.6774 14.0417C17.5822 14.1047 15.6742 15.2387 14.6518 17.0237C12.4774 20.6777 14.0974 26.0537 16.1782 29.0077C17.2222 30.4567 18.439 32.0737 20.0302 32.0107C21.5854 31.9477 22.1686 31.0447 24.0478 31.0447C25.9126 31.0447 26.4598 32.0107 28.0798 31.9757C29.7502 31.9477 30.8014 30.5197 31.8094 29.0637C32.5582 28.0347 33.1342 26.8937 33.5158 25.6897C31.5286 24.8707 30.2398 22.9807 30.2398 20.8807Z" fill="white"/>
<path d="M27.1656 12.0543C28.08 10.9903 28.5264 9.61826 28.4184 8.23926C27.0288 8.37926 25.74 9.03026 24.8184 10.0523C23.904 11.0603 23.4432 12.3833 23.5368 13.7203C24.948 13.7343 26.2872 13.1183 27.1656 12.0543Z" fill="white"/>
<path d="M55.4041 28.4964H50.2921L49.0609 32.0174H46.9009L51.7465 18.9834H53.9929L58.8385 32.0244H56.6353L55.4041 28.4964ZM50.8249 26.8724H54.8785L52.8769 21.1534H52.8193L50.8249 26.8724Z" fill="white"/>
<path d="M69.2928 27.265C69.2928 30.219 67.6656 32.116 65.2104 32.116C63.9432 32.179 62.748 31.535 62.136 30.45H62.0928V35.161H60.084V22.512H62.028V24.094H62.064C62.7048 23.016 63.9 22.372 65.1744 22.414C67.6584 22.414 69.2928 24.325 69.2928 27.265ZM67.2264 27.265C67.2264 25.34 66.204 24.073 64.6416 24.073C63.108 24.073 62.0784 25.368 62.0784 27.265C62.0784 29.183 63.108 30.464 64.6416 30.464C66.204 30.464 67.2264 29.211 67.2264 27.265Z" fill="white"/>
<path d="M80.0569 27.265C80.0569 30.219 78.4297 32.116 75.9745 32.116C74.7073 32.179 73.5121 31.535 72.9001 30.45H72.8569V35.161H70.8481V22.512H72.7921V24.094H72.8281C73.4689 23.016 74.6641 22.372 75.9385 22.414C78.4153 22.414 80.0569 24.325 80.0569 27.265ZM77.9905 27.265C77.9905 25.34 76.9681 24.073 75.4057 24.073C73.8721 24.073 72.8425 25.368 72.8425 27.265C72.8425 29.183 73.8721 30.464 75.4057 30.464C76.9681 30.464 77.9905 29.211 77.9905 27.265Z" fill="white"/>
<path d="M87.1635 28.3846C87.3147 29.6796 88.6035 30.5266 90.3675 30.5266C92.0595 30.5266 93.2763 29.6796 93.2763 28.5106C93.2763 27.4956 92.5419 26.8936 90.8067 26.4806L89.0715 26.0746C86.6091 25.4936 85.4643 24.3736 85.4643 22.5606C85.4643 20.3136 87.4803 18.7666 90.3459 18.7666C93.1827 18.7666 95.1267 20.3136 95.1915 22.5606H93.1683C93.0459 21.2586 91.9371 20.4746 90.3243 20.4746C88.7115 20.4746 87.6027 21.2726 87.6027 22.4276C87.6027 23.3516 88.3083 23.8906 90.0363 24.3036L91.5123 24.6536C94.2627 25.2836 95.4075 26.3616 95.4075 28.2656C95.4075 30.7016 93.4131 32.2346 90.2307 32.2346C87.2571 32.2346 85.2483 30.7436 85.1187 28.3846H87.1635Z" fill="white"/>
<path d="M99.7347 20.2646V22.5116H101.592V24.0586H99.7347V29.3017C99.7347 30.1137 100.109 30.4986 100.923 30.4986C101.146 30.4916 101.362 30.4777 101.585 30.4567V31.9896C101.218 32.0597 100.843 32.0876 100.469 32.0806C98.4891 32.0806 97.7187 31.3597 97.7187 29.5117V24.0586H96.3003V22.5116H97.7187V20.2646H99.7347Z" fill="white"/>
<path d="M102.672 27.2646C102.672 24.2756 104.487 22.3926 107.309 22.3926C110.146 22.3926 111.946 24.2686 111.946 27.2646C111.946 30.2606 110.153 32.1366 107.309 32.1366C104.465 32.1366 102.672 30.2676 102.672 27.2646ZM109.901 27.2646C109.901 25.2136 108.936 24.0026 107.309 24.0026C105.682 24.0026 104.717 25.2206 104.717 27.2646C104.717 29.3226 105.682 30.5266 107.309 30.5266C108.936 30.5266 109.901 29.3296 109.901 27.2646Z" fill="white"/>
<path d="M113.602 22.5119H115.517V24.1289H115.56C115.826 23.0859 116.806 22.3719 117.914 22.4139C118.145 22.4139 118.375 22.4349 118.606 22.4839V24.3109C118.31 24.2269 118.008 24.1849 117.706 24.1919C117.115 24.1709 116.546 24.3949 116.143 24.8149C115.74 25.2349 115.546 25.8089 115.618 26.3759V32.0179H113.609L113.602 22.5119Z" fill="white"/>
<path d="M127.851 29.2313C127.577 30.9603 125.849 32.1433 123.639 32.1433C120.795 32.1433 119.031 30.2883 119.031 27.3203C119.031 24.3383 120.809 22.4062 123.56 22.4062C126.267 22.4062 127.966 24.2123 127.966 27.0963V27.7683H121.061V27.8873C120.996 28.5943 121.248 29.2943 121.752 29.8123C122.256 30.3303 122.962 30.6103 123.689 30.5823C124.661 30.6733 125.583 30.1273 125.95 29.2453L127.851 29.2313ZM121.068 26.3893H125.957C125.993 25.7523 125.756 25.1293 125.302 24.6743C124.848 24.2193 124.215 23.9603 123.56 23.9743C122.897 23.9673 122.264 24.2263 121.796 24.6743C121.328 25.1363 121.068 25.7523 121.068 26.3893Z" fill="white"/>
<path d="M50.5727 9.17004C51.4223 9.10704 52.2575 9.42204 52.8479 10.024C53.4383 10.626 53.7119 11.452 53.6039 12.278C53.6039 14.28 52.4879 15.428 50.5727 15.428H48.2471V9.17004H50.5727ZM49.2479 14.546H50.4647C51.0695 14.581 51.6599 14.35 52.0775 13.909C52.4951 13.468 52.6751 12.88 52.5887 12.292C52.6679 11.711 52.4807 11.116 52.0703 10.682C51.6599 10.248 51.0695 10.017 50.4647 10.052H49.2479V14.546Z" fill="white"/>
<path d="M54.734 13.0691C54.6476 12.2221 55.0652 11.4031 55.814 10.9551C56.5628 10.5071 57.4988 10.5071 58.2404 10.9551C58.982 11.4031 59.3996 12.2221 59.3204 13.0691C59.4068 13.9161 58.9892 14.7421 58.2404 15.1901C57.4916 15.6381 56.5556 15.6381 55.8068 15.1901C55.058 14.7421 54.6476 13.9161 54.734 13.0691ZM58.334 13.0691C58.334 12.0471 57.8588 11.4451 57.0308 11.4451C56.1956 11.4451 55.7276 12.0471 55.7276 13.0691C55.7276 14.1051 56.1956 14.7001 57.0308 14.7001C57.8588 14.6931 58.334 14.0981 58.334 13.0691Z" fill="white"/>
<path d="M65.4189 15.4351H64.4253L63.4173 11.9491H63.3453L62.3445 15.4351H61.3581L60.0117 10.7031H60.9909L61.8621 14.3151H61.9341L62.9277 10.7031H63.8493L64.8501 14.3151H64.9293L65.7933 10.7031H66.7509L65.4189 15.4351Z" fill="white"/>
<path d="M67.8813 10.7031H68.8029V11.4521H68.8749C69.1269 10.8991 69.7101 10.5631 70.3293 10.6121C70.8117 10.5771 71.2797 10.7591 71.6037 11.0951C71.9277 11.4311 72.0789 11.9071 72.0069 12.3691V15.4281H71.0493V12.6071C71.0493 11.8441 70.7109 11.4661 69.9981 11.4661C69.6741 11.4521 69.3573 11.5781 69.1341 11.8091C68.9109 12.0401 68.8029 12.3551 68.8389 12.6701V15.4351H67.8813V10.7031Z" fill="white"/>
<path d="M73.5405 8.8623H74.4981V15.4353H73.5405V8.8623Z" fill="white"/>
<path d="M75.8375 13.0691C75.7511 12.2221 76.1687 11.4031 76.9175 10.9551C77.6663 10.5071 78.6023 10.5071 79.3439 10.9551C80.0855 11.4031 80.5031 12.2221 80.4239 13.0691C80.5103 13.9161 80.0927 14.7421 79.3439 15.1901C78.5951 15.6381 77.6591 15.6381 76.9103 15.1901C76.1615 14.7421 75.7511 13.9161 75.8375 13.0691ZM79.4375 13.0691C79.4375 12.0471 78.9623 11.4451 78.1343 11.4451C77.2991 11.4451 76.8311 12.0471 76.8311 13.0691C76.8311 14.1051 77.2991 14.7001 78.1343 14.7001C78.9623 14.6931 79.4375 14.0981 79.4375 13.0691Z" fill="white"/>
<path d="M81.4316 14.0983C81.4316 13.2443 82.0868 12.7543 83.2389 12.6843L84.5565 12.6073V12.2013C84.5565 11.7043 84.2181 11.4173 83.5629 11.4173C83.0301 11.4173 82.6557 11.6063 82.5477 11.9423H81.6188C81.7196 11.1303 82.5044 10.6123 83.6061 10.6123C84.8229 10.6123 85.5141 11.2003 85.5141 12.2013V15.4283H84.5925V14.7703H84.5133C84.1965 15.2533 83.6421 15.5403 83.0517 15.5123C82.6412 15.5543 82.2236 15.4213 81.9212 15.1553C81.6188 14.8893 81.4316 14.4973 81.4316 14.0983ZM84.5565 13.6923V13.2933L83.3685 13.3703C82.6989 13.4123 82.3964 13.6363 82.3964 14.0493C82.3964 14.4763 82.778 14.7213 83.2965 14.7213C83.6061 14.7493 83.9157 14.6583 84.1533 14.4623C84.3909 14.2733 84.5349 13.9933 84.5565 13.6923Z" fill="white"/>
<path d="M86.7744 13.0693C86.7744 11.5783 87.5664 10.6263 88.7904 10.6263C89.4096 10.5983 89.9928 10.9203 90.2808 11.4523H90.3528V8.8623H91.3104V15.4353H90.3888V14.6863H90.3096C90 15.2183 89.4096 15.5333 88.7832 15.5123C87.5592 15.5123 86.7744 14.5673 86.7744 13.0693ZM87.768 13.0693C87.768 14.0703 88.2576 14.6723 89.064 14.6723C89.8704 14.6723 90.3744 14.0633 90.3744 13.0693C90.3744 12.0823 89.8704 11.4663 89.064 11.4663C88.2576 11.4663 87.768 12.0753 87.768 13.0693Z" fill="white"/>
<path d="M95.2916 13.0691C95.2052 12.2221 95.6228 11.4031 96.3716 10.9551C97.1132 10.5071 98.0564 10.5071 98.798 10.9551C99.5396 11.4031 99.9572 12.2221 99.878 13.0691C99.9644 13.9161 99.5468 14.7421 98.798 15.1901C98.0564 15.6381 97.1132 15.6381 96.3644 15.1901C95.6156 14.7421 95.2052 13.9161 95.2916 13.0691ZM98.8844 13.0691C98.8844 12.0471 98.4092 11.4451 97.5812 11.4451C96.746 11.4451 96.278 12.0471 96.278 13.0691C96.278 14.1051 96.746 14.7001 97.5812 14.7001C98.4164 14.6931 98.8844 14.0981 98.8844 13.0691Z" fill="white"/>
<path d="M101.16 10.7031H102.081V11.4521H102.153C102.405 10.8991 102.988 10.5631 103.608 10.6121C104.09 10.5771 104.558 10.7591 104.882 11.0951C105.206 11.4381 105.357 11.9071 105.285 12.3691V15.4281H104.328V12.6071C104.328 11.8441 103.989 11.4661 103.276 11.4661C102.952 11.4521 102.636 11.5781 102.412 11.8091C102.189 12.0401 102.081 12.3551 102.117 12.6701V15.4351H101.16V10.7031Z" fill="white"/>
<path d="M110.714 9.52734V10.7243H111.766V11.5083H110.714V13.9373C110.714 14.4343 110.923 14.6513 111.406 14.6513C111.528 14.6513 111.65 14.6443 111.773 14.6303V15.4073C111.6 15.4353 111.427 15.4563 111.247 15.4563C110.182 15.4563 109.757 15.0923 109.757 14.1823V11.5153H108.986V10.7243H109.757V9.52734H110.714Z" fill="white"/>
<path d="M113.083 8.8623H114.033V11.4663H114.113C114.372 10.9063 114.969 10.5703 115.596 10.6193C116.071 10.5913 116.539 10.7733 116.863 11.1163C117.187 11.4593 117.338 11.9213 117.273 12.3833V15.4353H116.316V12.6073C116.316 11.8513 115.956 11.4663 115.279 11.4663C114.948 11.4383 114.617 11.5573 114.379 11.7883C114.141 12.0193 114.026 12.3413 114.055 12.6633V15.4213H113.097L113.083 8.8623Z" fill="white"/>
<path d="M122.86 14.1546C122.594 15.0436 121.701 15.6246 120.751 15.5196C120.103 15.5336 119.476 15.2746 119.044 14.8056C118.612 14.3366 118.411 13.7066 118.504 13.0766C118.418 12.4536 118.612 11.8166 119.044 11.3406C119.476 10.8646 120.096 10.5986 120.744 10.6056C122.097 10.6056 122.911 11.5016 122.911 12.9856V13.3146H119.476V13.3636C119.448 13.7136 119.57 14.0636 119.815 14.3226C120.06 14.5816 120.405 14.7286 120.772 14.7216C121.24 14.7776 121.701 14.5466 121.932 14.1476L122.86 14.1546ZM119.484 12.6356H121.939C121.96 12.3136 121.845 11.9986 121.622 11.7676C121.392 11.5366 121.075 11.4036 120.744 11.4106C120.405 11.4036 120.088 11.5366 119.851 11.7676C119.613 11.9916 119.484 12.3066 119.484 12.6356Z" fill="white"/>
<path d="M136.8 42H7.2C3.2328 42 0 38.857 0 35V7C0 3.143 3.2328 0 7.2 0H136.8C140.767 0 144 3.143 144 7V35C144 38.857 140.767 42 136.8 42ZM7.2 1.4C4.0248 1.4 1.44 3.913 1.44 7V35C1.44 38.087 4.0248 40.6 7.2 40.6H136.8C139.975 40.6 142.56 38.087 142.56 35V7C142.56 3.913 139.975 1.4 136.8 1.4H7.2Z" fill="white"/>
</svg>
