<svg width="144" height="42" viewBox="0 0 144 42" fill="none" xmlns="http://www.w3.org/2000/svg">
<rect width="144" height="42" fill="black"/>
<path d="M51.1919 10.7101C51.1919 11.5501 50.9759 12.2851 50.4359 12.8101C49.7879 13.4401 49.0319 13.7551 48.0599 13.7551C47.0879 13.7551 46.3319 13.4401 45.6839 12.8101C45.0359 12.1801 44.7119 11.4451 44.7119 10.5001C44.7119 9.55512 45.0359 8.82012 45.6839 8.19012C46.3319 7.56012 47.0879 7.24512 48.0599 7.24512C48.4919 7.24512 48.9239 7.35012 49.3559 7.56012C49.7879 7.77012 50.1119 7.98012 50.3279 8.29512L49.7879 8.82012C49.3559 8.29512 48.8159 8.08512 48.0599 8.08512C47.4119 8.08512 46.7639 8.29512 46.3319 8.82012C45.7919 9.24012 45.5759 9.87012 45.5759 10.6051C45.5759 11.3401 45.7919 11.9701 46.3319 12.3901C46.8719 12.8101 47.4119 13.1251 48.0599 13.1251C48.8159 13.1251 49.3559 12.9151 49.8959 12.3901C50.2199 12.0751 50.4359 11.6551 50.4359 11.1301H48.0599V10.3951H51.1919C51.1919 10.3951 51.1919 10.6051 51.1919 10.7101Z" fill="white"/>
<path d="M48.0602 13.9303C47.0522 13.9303 46.253 13.6153 45.5546 12.9363C44.8562 12.2573 44.5322 11.4803 44.5322 10.5003C44.5322 9.52031 44.8562 8.74331 45.5546 8.06431C46.253 7.38531 47.0522 7.07031 48.0602 7.07031C48.521 7.07031 48.9818 7.18231 49.4354 7.40631C49.8242 7.59531 50.2202 7.81931 50.4794 8.19731L50.5586 8.31631L49.7738 9.07931L49.6442 8.93231C49.2626 8.46331 48.7874 8.26031 48.0602 8.26031C47.3906 8.26031 46.829 8.49831 46.4762 8.93231C45.9938 9.31731 45.7562 9.87031 45.7562 10.6053C45.7562 11.3403 45.9866 11.9003 46.4474 12.2503C46.9154 12.6143 47.4338 12.9503 48.0602 12.9503C48.773 12.9503 49.2698 12.7543 49.7666 12.2643C50.0474 11.9913 50.2058 11.6693 50.2418 11.3053H47.8802V10.2203H51.3722V10.7103C51.3722 11.6623 51.0986 12.4113 50.5658 12.9363C49.8674 13.6153 49.0682 13.9303 48.0602 13.9303ZM48.0602 7.42031C47.153 7.42031 46.4402 7.70731 45.8138 8.31631C45.1874 8.92531 44.8922 9.61831 44.8922 10.5003C44.8922 11.3823 45.1874 12.0753 45.8138 12.6843C46.4402 13.2933 47.153 13.5803 48.0602 13.5803C48.9674 13.5803 49.6802 13.2933 50.3066 12.6843C50.7746 12.2293 51.0122 11.5643 51.0122 10.7103V10.5703H48.2402V10.9553H50.6162V11.1303C50.6162 11.6553 50.4146 12.1383 50.0258 12.5163C49.457 13.0623 48.8666 13.3003 48.0602 13.3003C47.3114 13.3003 46.7138 12.9083 46.217 12.5303C45.6698 12.1033 45.3962 11.4523 45.3962 10.6053C45.3962 9.75831 45.6698 9.10731 46.217 8.68031C46.613 8.19031 47.2754 7.91031 48.0602 7.91031C48.8162 7.91031 49.3634 8.11331 49.7954 8.56131L50.0906 8.27431C49.9178 8.07831 49.673 7.91031 49.277 7.71431C48.8738 7.51831 48.4634 7.42031 48.0602 7.42031Z" fill="white"/>
<path d="M56.1599 8.08461H53.2439V10.0796H55.9439V10.8146H53.2439V12.8096H56.1599V13.6496H52.3799V7.34961H56.1599V8.08461Z" fill="white"/>
<path d="M56.3402 13.8248H52.2002V7.1748H56.3402V8.2598H53.4242V9.9048H56.1242V10.9898H53.4242V12.6348H56.3402V13.8248ZM52.5602 13.4748H55.9802V12.9848H53.0642V10.6398H55.7642V10.2548H53.0642V7.9098H55.9802V7.5248H52.5602V13.4748Z" fill="white"/>
<path d="M59.7239 13.6496H58.8599V8.08461H57.0239V7.34961H61.5599V8.08461H59.7239V13.6496Z" fill="white"/>
<path d="M59.9042 13.8248H58.6802V8.2598H56.8442V7.1748H61.7402V8.2598H59.9042V13.8248ZM59.0402 13.4748H59.5442V7.9098H61.3802V7.5248H57.2042V7.9098H59.0402V13.4748Z" fill="white"/>
<path d="M64.6924 13.6496V7.34961H65.5564V13.6496H64.6924Z" fill="white"/>
<path d="M65.7362 13.8248H64.5122V7.1748H65.7362V13.8248ZM64.8722 13.4748H65.3762V7.5248H64.8722V13.4748Z" fill="white"/>
<path d="M69.2278 13.6496H68.3638V8.08461H66.5278V7.34961H70.9558V8.08461H69.1198V13.6496H69.2278Z" fill="white"/>
<path d="M69.2281 13.8248H68.1841V8.2598H66.3481V7.1748H71.1361V8.2598H69.3001V13.6498H69.2281V13.8248ZM68.5441 13.4748H68.9401V7.9098H70.7761V7.5248H66.7081V7.9098H68.5441V13.4748Z" fill="white"/>
<path d="M79.4877 12.8101C78.8397 13.4401 78.0837 13.7551 77.1117 13.7551C76.1397 13.7551 75.3837 13.4401 74.7357 12.8101C74.0877 12.1801 73.7637 11.4451 73.7637 10.5001C73.7637 9.55512 74.0877 8.82012 74.7357 8.19012C75.3837 7.56012 76.1397 7.24512 77.1117 7.24512C78.0837 7.24512 78.8397 7.56012 79.4877 8.19012C80.1357 8.82012 80.4597 9.55512 80.4597 10.5001C80.4597 11.4451 80.1357 12.1801 79.4877 12.8101ZM75.3837 12.2851C75.8157 12.7051 76.4637 13.0201 77.1117 13.0201C77.7597 13.0201 78.4077 12.8101 78.8397 12.2851C79.2717 11.8651 79.5957 11.2351 79.5957 10.5001C79.5957 9.76512 79.3797 9.13512 78.8397 8.71512C78.4077 8.29512 77.7597 7.98012 77.1117 7.98012C76.4637 7.98012 75.8157 8.19012 75.3837 8.71512C74.9517 9.13512 74.6277 9.76512 74.6277 10.5001C74.6277 11.2351 74.8437 11.8651 75.3837 12.2851Z" fill="white"/>
<path d="M77.112 13.9303C76.104 13.9303 75.3048 13.6153 74.6064 12.9363C73.9224 12.2643 73.584 11.4663 73.584 10.5003C73.584 9.53431 73.9224 8.73631 74.6064 8.06431C75.3048 7.38531 76.104 7.07031 77.112 7.07031C78.12 7.07031 78.9192 7.38531 79.6176 8.06431C80.3016 8.73631 80.64 9.53431 80.64 10.5003C80.64 11.4663 80.3016 12.2643 79.6176 12.9363C78.9192 13.6153 78.12 13.9303 77.112 13.9303ZM77.112 7.42031C76.2048 7.42031 75.492 7.70731 74.8656 8.31631C74.2392 8.92531 73.944 9.61831 73.944 10.5003C73.944 11.3823 74.2392 12.0753 74.8656 12.6843C75.492 13.2933 76.2048 13.5803 77.112 13.5803C78.0192 13.5803 78.732 13.2933 79.3584 12.6843C79.9848 12.0753 80.28 11.3823 80.28 10.5003C80.28 9.61831 79.9848 8.92531 79.3584 8.31631C78.732 7.70731 78.0192 7.42031 77.112 7.42031ZM77.112 13.1953C76.4712 13.1953 75.7656 12.8943 75.2616 12.4183C74.7216 11.9913 74.448 11.3473 74.448 10.5003C74.448 9.78631 74.7432 9.09331 75.2544 8.58931C75.6648 8.08531 76.3272 7.80531 77.112 7.80531C77.76 7.80531 78.4656 8.10631 78.9696 8.58931C79.5024 9.00231 79.776 9.65331 79.776 10.5003C79.776 11.2143 79.4808 11.9073 78.9696 12.4113C78.5592 12.9083 77.8896 13.1953 77.112 13.1953ZM77.112 8.15531C76.4424 8.15531 75.8808 8.39331 75.528 8.82731C75.0672 9.27531 74.808 9.87731 74.808 10.5003C74.808 11.2423 75.0384 11.7953 75.4992 12.1453L75.5136 12.1593C75.9456 12.5793 76.5576 12.8453 77.112 12.8453C77.7816 12.8453 78.3432 12.6073 78.7032 12.1733C79.164 11.7253 79.4232 11.1163 79.4232 10.5003C79.4232 9.75831 79.1928 9.20531 78.732 8.85531C78.2784 8.41431 77.6664 8.15531 77.112 8.15531Z" fill="white"/>
<path d="M81.6479 13.6496V7.34961H82.62L85.752 12.2846V11.0246V7.34961H86.616V13.6496H85.752L82.404 8.50461V9.76461V13.6496H81.6479Z" fill="white"/>
<path d="M86.7963 13.8248H85.6515L82.5843 9.1068V13.8248H81.4683V7.1748H82.7211L85.5723 11.6688V7.1748H86.7963V13.8248ZM85.8531 13.4748H86.4363V7.5248H85.9323V12.9008L82.5195 7.5248H81.8283V13.4748H82.2243V7.9028L85.8531 13.4748Z" fill="white"/>
<path d="M73.5477 22.8901C70.9557 22.8901 68.9037 24.7801 68.9037 27.4051C68.9037 29.9251 70.9557 31.9201 73.5477 31.9201C76.1397 31.9201 78.1917 30.0301 78.1917 27.4051C78.1917 24.6751 76.1397 22.8901 73.5477 22.8901ZM73.5477 30.0301C72.1437 30.0301 70.9557 28.8751 70.9557 27.3001C70.9557 25.7251 72.1437 24.5701 73.5477 24.5701C74.9517 24.5701 76.1397 25.6201 76.1397 27.3001C76.1397 28.8751 74.9517 30.0301 73.5477 30.0301ZM63.5037 22.8901C60.9117 22.8901 58.8597 24.7801 58.8597 27.4051C58.8597 29.9251 60.9117 31.9201 63.5037 31.9201C66.0957 31.9201 68.1477 30.0301 68.1477 27.4051C68.1477 24.6751 66.0957 22.8901 63.5037 22.8901ZM63.5037 30.0301C62.0997 30.0301 60.9117 28.8751 60.9117 27.3001C60.9117 25.7251 62.0997 24.5701 63.5037 24.5701C64.9077 24.5701 66.0957 25.6201 66.0957 27.3001C66.0957 28.8751 64.9077 30.0301 63.5037 30.0301ZM51.5157 24.2551V26.1451H56.1597C56.0517 27.1951 55.6197 28.0351 55.0797 28.5601C54.4317 29.1901 53.3517 29.9251 51.5157 29.9251C48.5997 29.9251 46.4397 27.7201 46.4397 24.8851C46.4397 22.0501 48.7077 19.8451 51.5157 19.8451C53.0277 19.8451 54.2157 20.4751 55.0797 21.2101L56.4837 19.8451C55.2957 18.7951 53.7837 17.9551 51.6237 17.9551C47.7357 17.9551 44.3877 21.1051 44.3877 24.8851C44.3877 28.6651 47.7357 31.8151 51.6237 31.8151C53.7837 31.8151 55.2957 31.1851 56.5917 29.8201C57.8877 28.5601 58.3197 26.7751 58.3197 25.4101C58.3197 24.9901 58.3197 24.5701 58.2117 24.2551H51.5157ZM100.548 25.7251C100.116 24.6751 99.0357 22.8901 96.6597 22.8901C94.2837 22.8901 92.3397 24.6751 92.3397 27.4051C92.3397 29.9251 94.2837 31.9201 96.8757 31.9201C98.9277 31.9201 100.224 30.6601 100.656 29.9251L99.1437 28.8751C98.6037 29.6101 97.9557 30.1351 96.8757 30.1351C95.7957 30.1351 95.1477 29.7151 94.6077 28.7701L100.764 26.2501L100.548 25.7251ZM94.2837 27.1951C94.2837 25.5151 95.6877 24.5701 96.6597 24.5701C97.4157 24.5701 98.1717 24.9901 98.3877 25.5151L94.2837 27.1951ZM89.2077 31.5001H91.2597V18.3751H89.2077V31.5001ZM85.9677 23.8351C85.4277 23.3101 84.5637 22.7851 83.4837 22.7851C81.2157 22.7851 79.0557 24.7801 79.0557 27.3001C79.0557 29.8201 81.1077 31.7101 83.4837 31.7101C84.5637 31.7101 85.4277 31.1851 85.8597 30.6601H85.9677V31.2901C85.9677 32.9701 84.9957 33.9151 83.4837 33.9151C82.2957 33.9151 81.4317 33.0751 81.2157 32.3401L79.4877 33.0751C80.0277 34.2301 81.3237 35.7001 83.5917 35.7001C85.9677 35.7001 87.9117 34.3351 87.9117 31.0801V23.1001H85.9677V23.8351ZM83.5917 30.0301C82.1877 30.0301 80.9997 28.8751 80.9997 27.3001C80.9997 25.7251 82.1877 24.5701 83.5917 24.5701C84.9957 24.5701 86.0757 25.7251 86.0757 27.3001C86.0757 28.8751 84.9957 30.0301 83.5917 30.0301ZM109.944 18.3751H105.084V31.5001H107.136V26.5651H109.944C112.212 26.5651 114.372 24.9901 114.372 22.4701C114.372 19.9501 112.212 18.3751 109.944 18.3751ZM110.052 24.6751H107.136V20.1601H110.052C111.564 20.1601 112.428 21.4201 112.428 22.3651C112.32 23.5201 111.456 24.6751 110.052 24.6751ZM122.472 22.7851C120.96 22.7851 119.448 23.4151 118.908 24.7801L120.744 25.5151C121.176 24.7801 121.824 24.5701 122.58 24.5701C123.66 24.5701 124.632 25.2001 124.74 26.2501V26.3551C124.416 26.1451 123.552 25.8301 122.688 25.8301C120.744 25.8301 118.8 26.8801 118.8 28.7701C118.8 30.5551 120.42 31.7101 122.148 31.7101C123.552 31.7101 124.2 31.0801 124.74 30.4501H124.848V31.5001H126.792V26.4601C126.576 24.1501 124.74 22.7851 122.472 22.7851ZM122.256 30.0301C121.608 30.0301 120.636 29.7151 120.636 28.8751C120.636 27.8251 121.824 27.5101 122.796 27.5101C123.66 27.5101 124.092 27.7201 124.632 27.9301C124.416 29.1901 123.336 30.0301 122.256 30.0301ZM133.596 23.1001L131.328 28.7701H131.22L128.844 23.1001H126.684L130.248 31.0801L128.196 35.4901H130.248L135.756 23.1001H133.596ZM115.452 31.5001H117.504V18.3751H115.452V31.5001Z" fill="white"/>
<path d="M10.1309 7.22159C9.80366 7.5672 9.61182 8.10233 9.61182 8.78239V33.4429C9.61182 34.1341 9.80366 34.6693 10.1309 35.0037L10.2099 35.0818L24.1921 21.2799V21.1127V20.9454L10.2099 7.14355L10.1309 7.22159Z" fill="url(#paint0_linear_568_235)"/>
<path d="M28.8521 25.884L24.1914 21.2796V21.1124V20.9452L28.8521 16.3408L28.9537 16.3966L34.4721 19.4959C36.052 20.3766 36.052 21.8259 34.4721 22.7178L28.9537 25.8171L28.8521 25.884Z" fill="url(#paint1_linear_568_235)"/>
<path d="M28.9538 25.8252L24.1915 21.1094L10.1304 35.0004C10.6495 35.5467 11.5071 35.6136 12.4777 35.0673L28.9538 25.8252Z" fill="url(#paint2_linear_568_235)"/>
<path d="M28.9534 16.4055L12.4659 7.15221C11.4954 6.60593 10.6378 6.67282 10.1187 7.2191L24.1911 21.1102L28.9534 16.4055Z" fill="url(#paint3_linear_568_235)"/>
<path opacity="0.2" d="M28.8522 25.7158L12.4664 34.9133C11.5523 35.4262 10.7285 35.3927 10.2094 34.9245L10.1304 35.0025L10.2094 35.0806C10.7398 35.5488 11.5523 35.5823 12.4664 35.0694L28.9538 25.8162L28.8522 25.7158Z" fill="black"/>
<path opacity="0.12" d="M10.1309 34.8469C9.80366 34.5013 9.61182 33.9662 9.61182 33.2861V33.4534C9.61182 34.1446 9.80366 34.6797 10.1309 35.0141L10.2099 34.9361L10.1309 34.8469Z" fill="black"/>
<path opacity="0.12" d="M34.4725 22.5587L28.8413 25.7137L28.9429 25.814L34.4613 22.7148C35.2512 22.2688 35.6462 21.6891 35.6462 21.1094C35.5898 21.6334 35.1948 22.1573 34.4725 22.5587Z" fill="black"/>
<path opacity="0.25" d="M12.4665 7.3106L34.4723 19.6632C35.1833 20.0645 35.5895 20.5773 35.6572 21.1125C35.6572 20.5327 35.2623 19.9419 34.4723 19.5071L12.4665 7.15452C10.8866 6.27379 9.6001 7.00959 9.6001 8.79335V8.96058C9.6001 7.16567 10.8979 6.42987 12.4665 7.3106Z" fill="white"/>
<path d="M136.8 42H7.2C3.2328 42 0 38.857 0 35V7C0 3.143 3.2328 0 7.2 0H136.8C140.767 0 144 3.143 144 7V35C144 38.857 140.767 42 136.8 42ZM7.2 1.4C4.0248 1.4 1.44 3.913 1.44 7V35C1.44 38.087 4.0248 40.6 7.2 40.6H136.8C139.975 40.6 142.56 38.087 142.56 35V7C142.56 3.913 139.975 1.4 136.8 1.4H7.2Z" fill="white"/>
<defs>
<linearGradient id="paint0_linear_568_235" x1="22.9503" y1="8.52575" x2="4.24177" y2="27.4633" gradientUnits="userSpaceOnUse">
<stop stop-color="#00A0FF"/>
<stop offset="0.00657445" stop-color="#00A1FF"/>
<stop offset="0.2601" stop-color="#00BEFF"/>
<stop offset="0.5122" stop-color="#00D2FF"/>
<stop offset="0.7604" stop-color="#00DFFF"/>
<stop offset="1" stop-color="#00E3FF"/>
</linearGradient>
<linearGradient id="paint1_linear_568_235" x1="36.5308" y1="21.1142" x2="9.22452" y2="21.1142" gradientUnits="userSpaceOnUse">
<stop stop-color="#FFE000"/>
<stop offset="0.4087" stop-color="#FFBD00"/>
<stop offset="0.7754" stop-color="#FFA500"/>
<stop offset="1" stop-color="#FF9C00"/>
</linearGradient>
<linearGradient id="paint2_linear_568_235" x1="26.366" y1="23.6693" x2="0.995786" y2="49.3502" gradientUnits="userSpaceOnUse">
<stop stop-color="#FF3A44"/>
<stop offset="1" stop-color="#C31162"/>
</linearGradient>
<linearGradient id="paint3_linear_568_235" x1="6.58328" y1="-0.990338" x2="17.9122" y2="10.4772" gradientUnits="userSpaceOnUse">
<stop stop-color="#32A071"/>
<stop offset="0.0685" stop-color="#2DA771"/>
<stop offset="0.4762" stop-color="#15CF74"/>
<stop offset="0.8009" stop-color="#06E775"/>
<stop offset="1" stop-color="#00F076"/>
</linearGradient>
</defs>
</svg>
