<?xml version="1.0" encoding="utf-8"?>
<!-- Generator: Adobe Illustrator 28.0.0, SVG Export Plug-In . SVG Version: 6.00 Build 0)  -->
<svg version="1.1" id="Layer_1" xmlns="http://www.w3.org/2000/svg" xmlns:xlink="http://www.w3.org/1999/xlink" x="0px" y="0px"
	 viewBox="0 0 75.8 39" style="enable-background:new 0 0 75.8 39;" xml:space="preserve">
<style type="text/css">
	.st0{fill:#D51820;}
	.st1{fill:#FFFFFF;}
	.st2{fill:#0DFF00;}
</style>
<g>
	<path class="st1" d="M35.8,7.6c-0.5,0.3-1.2,0.6-2,0.6V6.9C35.4,6.9,36,6,36.3,5h1.1v14.4h-1.6V7.6z"/>
	<path class="st1" d="M39.1,8.5c0-2.2,1.1-3.6,3.3-3.6c2.2,0,3.3,1.4,3.3,3.6v7.4c0,2.2-1.1,3.6-3.3,3.6c-2.2,0-3.3-1.4-3.3-3.6V8.5
		z M40.7,16c0,1.3,0.6,2.1,1.7,2.1c1.2,0,1.7-0.8,1.7-2.1V8.4c0-1.3-0.5-2.1-1.7-2.1c-1.2,0-1.7,0.8-1.7,2.1V16z"/>
	<path class="st1" d="M47,8.5c0-2.2,1.1-3.6,3.3-3.6c2.2,0,3.3,1.4,3.3,3.6v7.4c0,2.2-1.1,3.6-3.3,3.6c-2.2,0-3.3-1.4-3.3-3.6V8.5z
		 M48.6,16c0,1.3,0.6,2.1,1.7,2.1c1.2,0,1.7-0.8,1.7-2.1V8.4c0-1.3-0.5-2.1-1.7-2.1c-1.2,0-1.7,0.8-1.7,2.1V16z"/>
	<path class="st1" d="M59,7.3v4.6c0,1.4-0.7,2.3-2.1,2.3s-2.1-0.9-2.1-2.3V7.3c0-1.4,0.7-2.3,2.1-2.3S59,5.9,59,7.3z M55.9,7.2v4.7
		c0,0.8,0.3,1.3,1,1.3c0.7,0,1-0.5,1-1.3V7.2c0-0.8-0.3-1.3-1-1.3C56.1,5.9,55.9,6.4,55.9,7.2z M63.7,5L58,19.4h-1L62.7,5H63.7z
		 M66,12.6v4.5c0,1.4-0.6,2.3-2.1,2.3c-1.4,0-2.1-0.9-2.1-2.3v-4.5c0-1.4,0.7-2.3,2.1-2.3C65.4,10.3,66,11.3,66,12.6z M62.9,12.6
		v4.7c0,0.8,0.3,1.3,1,1.3s1-0.5,1-1.3v-4.7c0-0.8-0.3-1.3-1-1.3S62.9,11.8,62.9,12.6z"/>
</g>
<g>
	<path class="st1" d="M36.4,21.8c1.9,0,2.7,0.9,2.7,2.7V25c0,1.3-0.4,2.1-1.4,2.4c1.2,0.3,1.6,1.3,1.6,2.6v1c0,1.8-0.9,2.9-2.8,2.9
		h-2.8V21.8H36.4z M36,27c1.1,0,1.6-0.4,1.6-1.6v-0.7c0-1.1-0.4-1.6-1.3-1.6H35v4H36z M36.4,32.8c1,0,1.5-0.5,1.5-1.7V30
		c0-1.4-0.5-1.8-1.7-1.8H35v4.6H36.4z"/>
	<path class="st1" d="M40.3,24.7c0-1.9,0.9-3.1,2.8-3.1c1.9,0,2.8,1.2,2.8,3.1v6.3c0,1.9-0.9,3.1-2.8,3.1c-1.9,0-2.8-1.2-2.8-3.1
		V24.7z M41.6,31.1c0,1.1,0.5,1.8,1.5,1.8c1,0,1.5-0.6,1.5-1.8v-6.5c0-1.1-0.5-1.8-1.5-1.8c-1,0-1.5,0.7-1.5,1.8V31.1z"/>
	<path class="st1" d="M48.3,34h-1.2V21.8h1.7l2.8,8.9v-8.9h1.2V34h-1.4l-3.1-9.9V34z"/>
	<path class="st1" d="M55.4,31.1c0,1.1,0.4,1.8,1.4,1.8c1,0,1.4-0.7,1.4-1.8v-9.4h1.3v9.3c0,1.9-0.9,3.1-2.7,3.1
		c-1.9,0-2.7-1.2-2.7-3.1v-9.3h1.3V31.1z"/>
	<path class="st1" d="M66.1,24.7V25h-1.3v-0.4c0-1.1-0.4-1.8-1.4-1.8c-1,0-1.4,0.6-1.4,1.7c0,2.7,4.1,3,4.1,6.5
		c0,1.9-0.9,3.1-2.8,3.1s-2.7-1.2-2.7-3.1v-0.7h1.3v0.8c0,1.1,0.5,1.8,1.4,1.8c1,0,1.4-0.6,1.4-1.8c0-2.7-4.1-3-4.1-6.4
		c0-1.9,0.9-3.1,2.7-3.1C65.2,21.6,66.1,22.8,66.1,24.7z"/>
</g>
<polygon class="st0" points="22.4,13.8 28.1,19.5 22.4,25.2 "/>
<rect x="10.9" y="8.7" class="st0" width="1" height="20.6"/>
<polygon class="st0" points="22.4,13.8 28.1,19.5 22.4,25.2 "/>
<rect x="10.9" y="8.7" class="st0" width="1" height="20.6"/>
<polygon class="st1" points="75.8,0.1 24.1,0.1 24.1,7.5 24.8,7.5 24.8,0.8 75,0.8 75,38.2 24.8,38.2 24.8,31.5 24.1,31.5 
	24.1,38.9 75.8,38.9 "/>
</svg>
